:SAMPLES-PER-SECOND 30
:FULLY-SPECIFIED
:DEGREES
520
root  46.0519 28.7076 -3.22511 -73.8695 74.3863 -86.1917
RightUpLeg  -61.2411 -7.67428 19.5148
RightLeg  84.1436 -1.65393 -26.6417
RightFoot  -28.7527 0.533625 4.75959
RightToes  -1.33073e-015 0 -3.6325e-017
Spine  44.0229 -7.18567 16.6987
Spine1  -6.78778 -3.61965 15.1005
HEad  -55.5038 19.4481 -16.3342
LeftShoulder1  12.5227 -18.8418 -48.9135
LeftArm  -0.964204 -8.50976 -28.18
LeftForeArm  39.9212 -11.1409 -7.49238
LeftHand  -0.244104 0.0205437 5.32207
RightShoulder  6.32993 12.1381 34.508
RightArm  9.72255 -19.2616 19.308
RightForeArm  -7.13639 22.7897 5.33985
RightHand  -4.15627 11.2385 -28.7525
LeftUpLeg  10.5427 -1.37877 10.4686
LeftLeg  61.3441 8.98801 17.871
LeftFoot  -19.0109 -1.12386 -18.0022
LeftToes  -7.82198e-011 2.46994e-011 -7.94165e-012
521
root  46.5304 29.8283 -3.0261 -77.5461 75.9155 -90.7715
RightUpLeg  -58.5114 -7.00352 17.8245
RightLeg  80.298 -3.81063 -27.7811
RightFoot  -27.8953 0.553661 5.10837
RightToes  -1.33073e-015 0 -3.6325e-017
Spine  44.0985 -7.1918 16.8133
Spine1  -8.44011 -3.14064 14.3938
HEad  -55.178 17.6054 -15.7644
LeftShoulder1  12.342 -18.7979 -48.2961
LeftArm  1.50517 -8.89717 -28.5038
LeftForeArm  35.9561 -14.9091 -6.24943
LeftHand  -0.244104 0.0205437 5.32207
RightShoulder  6.5009 12.2108 35.3937
RightArm  3.32176 -15.377 19.8512
RightForeArm  -6.70082 24.7694 5.63417
RightHand  -4.07524 10.9695 -28.6581
LeftUpLeg  6.52399 -2.49154 9.56553
LeftLeg  62.3142 7.75308 16.1518
LeftFoot  -11.9335 0.00473873 -13.744
LeftToes  -7.82198e-011 2.46994e-011 -7.94165e-012
522
root  46.9692 30.9735 -2.84394 -82.3299 77.3231 -95.7754
RightUpLeg  -55.0854 -6.51466 16.106
RightLeg  76.1851 -6.28876 -28.6213
RightFoot  -26.7501 0.556418 5.45232
RightToes  -1.33073e-015 0 -3.6325e-017
Spine  44.2311 -7.16832 17.0181
Spine1  -9.20034 -2.64232 12.8118
HEad  -54.8455 15.3604 -14.8882
LeftShoulder1  12.0377 -18.7136 -47.2675
LeftArm  1.39651 -9.3114 -29.3987
LeftForeArm  32.2577 -17.8578 -4.84009
LeftHand  -0.244104 0.0205437 5.32207
RightShoulder  6.54695 12.1452 35.8513
RightArm  -2.88234 -12.1156 21.0511
RightForeArm  -6.4655 28.9287 6.61923
RightHand  -4.10331 10.9056 -28.9522
LeftUpLeg  0.4873 -2.40793 9.09326
LeftLeg  67.2172 4.90243 13.3604
LeftFoot  -8.35903 0.330101 -10.3549
LeftToes  -7.82198e-011 2.46994e-011 -7.94165e-012
523
root  47.4728 32.1744 -2.66316 -89.6748 78.6377 -102.629
RightUpLeg  -50.7256 -6.63526 14.4234
RightLeg  71.6481 -9.11923 -29.0457
RightFoot  -25.4831 0.499516 5.41593
RightToes  -1.33073e-015 0 -3.6325e-017
Spine  44.1822 -7.12575 16.806
Spine1  -8.95319 -2.46688 11.1649
HEad  -54.539 13.4042 -13.9286
LeftShoulder1  11.8465 -18.6372 -46.6634
LeftArm  -0.495157 -9.3876 -29.793
LeftForeArm  29.6429 -19.5489 -4.1098
LeftHand  -0.244104 0.0205437 5.32207
RightShoulder  6.64746 12.142 36.4866
RightArm  -6.21496 -8.40849 21.8025
RightForeArm  -6.85039 33.6533 7.87317
RightHand  -4.02527 10.5725 -28.9904
LeftUpLeg  -6.56493 -1.56059 8.56477
LeftLeg  73.9235 2.94025 12.7097
LeftFoot  -8.07242 0.301244 -8.80694
LeftToes  -7.82198e-011 2.46994e-011 -7.94165e-012
524
root  48.0746 33.3494 -2.48823 -99.8353 79.8057 -111.805
RightUpLeg  -45.6209 -7.44347 12.7123
RightLeg  66.9663 -11.9862 -28.8721
RightFoot  -24.3736 0.411606 5.04904
RightToes  -1.33073e-015 0 -3.6325e-017
Spine  43.9952 -7.0247 16.0533
Spine1  -8.45182 -2.50844 9.73117
HEad  -53.8573 11.7983 -13.126
LeftShoulder1  11.8157 -18.5432 -46.7433
LeftArm  -1.90444 -8.51108 -29.2283
LeftForeArm  28.4403 -20.5895 -3.80173
LeftHand  -0.244104 0.0205437 5.32207
RightShoulder  6.69191 12.0758 36.9382
RightArm  -7.09172 -4.34546 22.302
RightForeArm  -5.99878 37.7964 9.04618
RightHand  -3.82237 9.94417 -28.6728
LeftUpLeg  -13.8521 -0.472203 7.70475
LeftLeg  79.5317 1.90851 14.2558
LeftFoot  -8.81567 0.237487 -8.37164
LeftToes  -7.82198e-011 2.46994e-011 -7.94165e-012
525
root  48.7639 34.4239 -2.33934 -111.57 80.7144 -122.49
RightUpLeg  -40.3094 -8.88815 10.9966
RightLeg  62.1677 -14.4776 -27.7168
RightFoot  -23.6003 0.337687 4.63436
RightToes  -1.33073e-015 0 -3.6325e-017
Spine  43.8014 -6.7086 15.0531
Spine1  -8.50319 -2.40871 8.43684
HEad  -52.6632 10.0185 -12.6456
LeftShoulder1  11.7903 -18.3684 -47.0243
LeftArm  -2.44831 -6.57655 -28.4656
LeftForeArm  29.1283 -21.2389 -3.62122
LeftHand  -0.244104 0.0205437 5.32207
RightShoulder  6.42834 11.7371 36.1869
RightArm  -7.03314 -1.01999 23.7068
RightForeArm  -3.33132 41.4737 10.1084
RightHand  -3.58358 9.2289 -28.2196
LeftUpLeg  -21.0294 0.552162 6.49905
LeftLeg  82.2878 1.23827 14.5277
LeftFoot  -9.38516 0.188652 -7.73905
LeftToes  -7.82198e-011 2.46994e-011 -7.94165e-012
526
root  49.5521 35.4255 -2.22851 -123.907 81.4427 -133.817
RightUpLeg  -34.8759 -11.0307 9.17711
RightLeg  56.8353 -16.3696 -25.3269
RightFoot  -23.0648 0.275604 4.20696
RightToes  -1.33073e-015 0 -3.6325e-017
Spine  43.3489 -6.13793 13.9272
Spine1  -8.58883 -2.12169 6.77196
HEad  -51.159 8.03777 -11.9812
LeftShoulder1  11.7835 -18.252 -47.2545
LeftArm  -2.83513 -4.07519 -27.6111
LeftForeArm  30.942 -21.1997 -3.53941
LeftHand  -0.244104 0.0205437 5.32207
RightShoulder  6.2341 11.4324 35.7593
RightArm  -6.69616 1.30677 24.6544
RightForeArm  -0.279076 45.0264 11.2408
RightHand  -3.343 8.4975 -27.733
LeftUpLeg  -27.5259 1.22825 4.94848
LeftLeg  81.8125 1.00873 11.6907
LeftFoot  -9.98887 0.143872 -7.13056
LeftToes  -7.82198e-011 2.46994e-011 -7.94165e-012
